<svg width="228" height="272" viewBox="0 0 228 272" fill="none" xmlns="http://www.w3.org/2000/svg">
<g filter="url(#filter0_b_34_1187)">
<rect x="0.923584" y="0.285645" width="226.228" height="294.857" rx="17.1429" fill="#1D1A27" fill-opacity="0.8"/>
</g>
<rect x="15.1152" y="17.3433" width="197.845" height="50.3613" rx="8.57143" fill="white" fill-opacity="0.2"/>
<rect x="15.1152" y="120.503" width="197.845" height="142.149" rx="8.57143" fill="white" fill-opacity="0.2"/>
<rect x="22.6282" y="129.438" width="62.6092" height="124.279" rx="8.57143" fill="white" fill-opacity="0.5"/>
<rect x="92.7502" y="129.438" width="50.0873" height="58.4841" rx="8.57143" fill="white" fill-opacity="0.5"/>
<rect x="94.4199" y="195.232" width="50.0873" height="58.4841" rx="8.57143" fill="white" fill-opacity="0.5"/>
<rect x="150.351" y="129.438" width="50.0873" height="58.4841" rx="8.57143" fill="white" fill-opacity="0.5"/>
<rect x="152.02" y="195.232" width="50.0873" height="58.4841" rx="8.57143" fill="white" fill-opacity="0.5"/>
<rect x="71.792" y="75.8276" width="69.2875" height="8.12279" rx="4.06139" fill="#C4C4C4"/>
<rect x="71.792" y="88.0117" width="35.0611" height="8.12279" rx="4.06139" fill="#C4C4C4" fill-opacity="0.5"/>
<ellipse cx="177.064" cy="79.889" rx="4.17394" ry="4.06139" fill="#C4C4C4"/>
<ellipse cx="189.586" cy="79.889" rx="4.17394" ry="4.06139" fill="#C4C4C4"/>
<ellipse cx="202.108" cy="79.889" rx="4.17394" ry="4.06139" fill="#C4C4C4"/>
<ellipse cx="44.1396" cy="80.4274" rx="21.4231" ry="20.8454" fill="#C4C4C4"/>
<defs>
<filter id="filter0_b_34_1187" x="-7.64784" y="-8.28578" width="243.371" height="312" filterUnits="userSpaceOnUse" color-interpolation-filters="sRGB">
<feFlood flood-opacity="0" result="BackgroundImageFix"/>
<feGaussianBlur in="BackgroundImage" stdDeviation="4.28571"/>
<feComposite in2="SourceAlpha" operator="in" result="effect1_backgroundBlur_34_1187"/>
<feBlend mode="normal" in="SourceGraphic" in2="effect1_backgroundBlur_34_1187" result="shape"/>
</filter>
</defs>
</svg>
