<svg width="25" height="24" viewBox="0 0 25 24" fill="none" xmlns="http://www.w3.org/2000/svg">
<path d="M12.5 0.74707C5.5971 0.74707 0 5.84349 0 12.1289C0 18.4143 5.5971 23.5107 12.5 23.5107C19.4029 23.5107 25 18.4143 25 12.1289C25 5.84349 19.4029 0.74707 12.5 0.74707ZM12.5 21.5799C6.76897 21.5799 2.12054 17.3473 2.12054 12.1289C2.12054 6.91054 6.76897 2.67792 12.5 2.67792C18.231 2.67792 22.8795 6.91054 22.8795 12.1289C22.8795 17.3473 18.231 21.5799 12.5 21.5799Z" fill="white" fill-opacity="0.5"/>
<path d="M12.6616 7.86152C14.1907 7.86152 15.2293 8.71025 15.3447 9.95571C15.3534 10.0612 15.4544 10.1415 15.5755 10.1415H17.2114C17.2864 10.1415 17.347 10.0888 17.347 10.0235C17.347 7.84645 15.3736 6.32227 12.6529 6.32227C9.48222 6.32227 7.65308 8.18544 7.65308 11.264V12.5772C7.65308 15.6331 9.48222 17.4712 12.6529 17.4712C15.3649 17.4712 17.347 15.9947 17.347 13.9206C17.347 13.8553 17.2864 13.8026 17.2114 13.8026H15.5727C15.4515 13.8026 15.3534 13.8829 15.3418 13.9859C15.2207 15.1435 14.1849 15.9395 12.6587 15.9395C10.7747 15.9395 9.71303 14.7367 9.71303 12.5847V11.264C9.71592 9.07936 10.7805 7.86152 12.6616 7.86152Z" fill="white" fill-opacity="0.5"/>
</svg>
