<svg width="38" height="38" viewBox="0 0 38 38" fill="none" xmlns="http://www.w3.org/2000/svg">
<path d="M21.8433 35.4558L19.9605 37.3875C19.1633 38.2055 17.8741 38.2055 17.0854 37.3875L0.597924 20.4803C-0.199308 19.6623 -0.199308 18.3397 0.597924 17.5304L17.0854 0.614441C17.8826 -0.203512 19.1717 -0.203512 19.9605 0.614441L21.8433 2.5462C22.649 3.37286 22.6321 4.72161 21.8094 5.53086L11.5896 15.5203H35.9645C37.0925 15.5203 38 16.4514 38 17.6087V20.3932C38 21.5506 37.0925 22.4816 35.9645 22.4816H11.5896L21.8094 32.4711C22.6406 33.2803 22.6575 34.6291 21.8433 35.4558Z" fill="white"/>
</svg>
