<svg width="38" height="38" viewBox="0 0 38 38" fill="none" xmlns="http://www.w3.org/2000/svg">
<path d="M16.1567 35.4552L18.0395 37.387C18.8367 38.205 20.1259 38.205 20.9146 37.387L37.4021 20.4795C38.1993 19.6616 38.1993 18.3389 37.4021 17.5297L20.9146 0.613473C20.1174 -0.204491 18.8283 -0.204491 18.0395 0.613473L16.1567 2.54526C15.351 3.37192 15.3679 4.72069 16.1906 5.52995L26.4104 15.5196H2.03549C0.907489 15.5196 9.49993e-07 16.4506 9.49993e-07 17.608V20.3925C9.49993e-07 21.5499 0.907489 22.4809 2.03549 22.4809H26.4104L16.1906 32.4705C15.3594 33.2798 15.3425 34.6286 16.1567 35.4552Z" fill="white"/>
</svg>
